<svg width="120" height="40" viewBox="0 0 120 40" fill="none" xmlns="http://www.w3.org/2000/svg">
<g style="mix-blend-mode:screen" filter="url(#filter0_d_110001_43)">
<mask id="path-1-outside-1_110001_43" maskUnits="userSpaceOnUse" x="4" y="0" width="112" height="32" fill="black">
<rect fill="white" x="4" width="112" height="32"/>
<path d="M19.0908 25.1475H19.4316L29.3184 1H33.5234V30.0908H30.2275V7.98828H29.9434L20.8525 30.0908H17.6709L8.58008 7.98828H8.2959V30.0908H5V1H9.20508L19.0908 25.1475ZM49.791 13.1016H50.0176L57.5176 1H61.666L52.5176 15.5449L61.666 30.0908H57.5176L50.0176 18.2158H49.791L42.291 30.0908H38.1426L47.5176 15.5449L38.1426 1H42.291L49.791 13.1016ZM76.4209 1C78.4472 1.00002 80.1184 1.35015 81.4346 2.05078C82.7509 2.74207 83.7311 3.67537 84.375 4.84961C85.0188 6.0142 85.3408 7.30638 85.3408 8.72656C85.3408 9.97636 85.1188 11.0089 84.6738 11.8232C84.2382 12.6376 83.6601 13.2824 82.9404 13.7559C82.2303 14.2292 81.4582 14.5794 80.625 14.8066V15.0908C81.5151 15.1476 82.41 15.4602 83.3096 16.0283C84.2092 16.5965 84.9623 17.4111 85.5684 18.4717C86.1743 19.5322 86.4775 20.8293 86.4775 22.3633C86.4775 23.8215 86.1462 25.1331 85.4834 26.2979C84.8205 27.4626 83.7737 28.3865 82.3438 29.0684C80.9139 29.7501 79.0531 30.0908 76.7617 30.0908H66.25V1H76.4209ZM95.7891 13.9541H111.3V1H114.822V30.0908H111.3V17.0791H95.7891V30.0908H92.2656V1H95.7891V13.9541ZM69.7734 26.9658H76.7617C79.0626 26.9658 80.6962 26.5208 81.6621 25.6309C82.6375 24.7312 83.125 23.6417 83.125 22.3633C83.125 21.3785 82.8739 20.469 82.3721 19.6357C81.8702 18.7931 81.1554 18.121 80.2275 17.6191C79.2995 17.1078 78.2006 16.8516 76.9316 16.8516H69.7734V26.9658ZM69.7734 13.7842H76.3066C77.3672 13.7842 78.3245 13.5758 79.1768 13.1592C80.0384 12.7425 80.7198 12.155 81.2217 11.3975C81.733 10.6399 81.9893 9.74929 81.9893 8.72656C81.9892 7.44838 81.5433 6.36465 80.6533 5.47461C79.7632 4.57502 78.3526 4.12503 76.4209 4.125H69.7734V13.7842Z"/>
</mask>
<path d="M19.0908 25.1475H19.4316L29.3184 1H33.5234V30.0908H30.2275V7.98828H29.9434L20.8525 30.0908H17.6709L8.58008 7.98828H8.2959V30.0908H5V1H9.20508L19.0908 25.1475ZM49.791 13.1016H50.0176L57.5176 1H61.666L52.5176 15.5449L61.666 30.0908H57.5176L50.0176 18.2158H49.791L42.291 30.0908H38.1426L47.5176 15.5449L38.1426 1H42.291L49.791 13.1016ZM76.4209 1C78.4472 1.00002 80.1184 1.35015 81.4346 2.05078C82.7509 2.74207 83.7311 3.67537 84.375 4.84961C85.0188 6.0142 85.3408 7.30638 85.3408 8.72656C85.3408 9.97636 85.1188 11.0089 84.6738 11.8232C84.2382 12.6376 83.6601 13.2824 82.9404 13.7559C82.2303 14.2292 81.4582 14.5794 80.625 14.8066V15.0908C81.5151 15.1476 82.41 15.4602 83.3096 16.0283C84.2092 16.5965 84.9623 17.4111 85.5684 18.4717C86.1743 19.5322 86.4775 20.8293 86.4775 22.3633C86.4775 23.8215 86.1462 25.1331 85.4834 26.2979C84.8205 27.4626 83.7737 28.3865 82.3438 29.0684C80.9139 29.7501 79.0531 30.0908 76.7617 30.0908H66.25V1H76.4209ZM95.7891 13.9541H111.3V1H114.822V30.0908H111.3V17.0791H95.7891V30.0908H92.2656V1H95.7891V13.9541ZM69.7734 26.9658H76.7617C79.0626 26.9658 80.6962 26.5208 81.6621 25.6309C82.6375 24.7312 83.125 23.6417 83.125 22.3633C83.125 21.3785 82.8739 20.469 82.3721 19.6357C81.8702 18.7931 81.1554 18.121 80.2275 17.6191C79.2995 17.1078 78.2006 16.8516 76.9316 16.8516H69.7734V26.9658ZM69.7734 13.7842H76.3066C77.3672 13.7842 78.3245 13.5758 79.1768 13.1592C80.0384 12.7425 80.7198 12.155 81.2217 11.3975C81.733 10.6399 81.9893 9.74929 81.9893 8.72656C81.9892 7.44838 81.5433 6.36465 80.6533 5.47461C79.7632 4.57502 78.3526 4.12503 76.4209 4.125H69.7734V13.7842Z" fill="white"/>
<path d="M19.0908 25.1475L18.1654 25.5263L18.4197 26.1475H19.0908V25.1475ZM19.4316 25.1475V26.1475H20.1028L20.3571 25.5264L19.4316 25.1475ZM29.3184 1V0H28.6472L28.3929 0.621098L29.3184 1ZM33.5234 1H34.5234V0H33.5234V1ZM33.5234 30.0908V31.0908H34.5234V30.0908H33.5234ZM30.2275 30.0908H29.2275V31.0908H30.2275V30.0908ZM30.2275 7.98828H31.2275V6.98828H30.2275V7.98828ZM29.9434 7.98828V6.98828H29.2734L29.0185 7.6079L29.9434 7.98828ZM20.8525 30.0908V31.0908H21.5225L21.7774 30.4712L20.8525 30.0908ZM17.6709 30.0908L16.7461 30.4712L17.0009 31.0908H17.6709V30.0908ZM8.58008 7.98828L9.50491 7.6079L9.25006 6.98828H8.58008V7.98828ZM8.2959 7.98828V6.98828H7.2959V7.98828H8.2959ZM8.2959 30.0908V31.0908H9.2959V30.0908H8.2959ZM5 30.0908H4V31.0908H5V30.0908ZM5 1V0H4V1H5ZM9.20508 1L10.1305 0.62113L9.87624 0H9.20508V1ZM49.791 13.1016L48.941 13.6284L49.2343 14.1016H49.791V13.1016ZM50.0176 13.1016V14.1016H50.5743L50.8676 13.6284L50.0176 13.1016ZM57.5176 1V0H56.9609L56.6676 0.473211L57.5176 1ZM61.666 1L62.5125 1.53242L63.4764 0L61.666 0V1ZM52.5176 15.5449L51.6711 15.0125L51.3362 15.5449L51.6711 16.0773L52.5176 15.5449ZM61.666 30.0908V31.0908H63.4763L62.5125 29.5584L61.666 30.0908ZM57.5176 30.0908L56.6721 30.6248L56.9664 31.0908H57.5176V30.0908ZM50.0176 18.2158L50.8631 17.6818L50.5687 17.2158H50.0176V18.2158ZM49.791 18.2158V17.2158H49.2398L48.9455 17.6818L49.791 18.2158ZM42.291 30.0908V31.0908H42.8422L43.1365 30.6248L42.291 30.0908ZM38.1426 30.0908L37.302 29.5491L36.3084 31.0908H38.1426V30.0908ZM47.5176 15.5449L48.3581 16.0867L48.7073 15.5449L48.3581 15.0032L47.5176 15.5449ZM38.1426 1V0H36.3083L37.302 1.54177L38.1426 1ZM42.291 1L43.141 0.473211L42.8477 0H42.291V1ZM76.4209 1L76.4209 0H76.4209V1ZM81.4346 2.05078L80.9647 2.93352L80.9696 2.93611L81.4346 2.05078ZM84.375 4.84961L83.4982 5.33044L83.4998 5.33341L84.375 4.84961ZM85.3408 8.72656L86.3408 8.72656L86.3408 8.72651L85.3408 8.72656ZM84.6738 11.8232L83.7962 11.3437L83.792 11.3516L84.6738 11.8232ZM82.9404 13.7559L82.3908 12.9204L82.3858 12.9238L82.9404 13.7559ZM80.625 14.8066L80.3619 13.8419L79.625 14.0428V14.8066H80.625ZM80.625 15.0908H79.625V16.029L80.5613 16.0888L80.625 15.0908ZM83.3096 16.0283L83.8436 15.1828L83.8435 15.1828L83.3096 16.0283ZM85.5684 18.4717L86.4366 17.9756L86.4366 17.9755L85.5684 18.4717ZM86.4775 22.3633L87.4775 22.3633L87.4775 22.3633L86.4775 22.3633ZM85.4834 26.2979L86.3525 26.7925L86.3525 26.7924L85.4834 26.2979ZM82.3438 29.0684L82.7741 29.971L82.7741 29.971L82.3438 29.0684ZM76.7617 30.0908L76.7617 31.0908L76.7617 31.0908L76.7617 30.0908ZM66.25 30.0908H65.25V31.0908H66.25V30.0908ZM66.25 1V0H65.25V1H66.25ZM95.7891 13.9541H94.7891V14.9541H95.7891V13.9541ZM111.3 13.9541V14.9541H112.3V13.9541H111.3ZM111.3 1V0H110.3V1H111.3ZM114.822 1H115.822V0H114.822V1ZM114.822 30.0908V31.0908H115.822V30.0908H114.822ZM111.3 30.0908H110.3V31.0908H111.3V30.0908ZM111.3 17.0791H112.3V16.0791H111.3V17.0791ZM95.7891 17.0791V16.0791H94.7891V17.0791H95.7891ZM95.7891 30.0908V31.0908H96.7891V30.0908H95.7891ZM92.2656 30.0908H91.2656V31.0908H92.2656V30.0908ZM92.2656 1V0H91.2656V1H92.2656ZM95.7891 1H96.7891V0H95.7891V1ZM69.7734 26.9658H68.7734V27.9658H69.7734V26.9658ZM76.7617 26.9658L76.7617 27.9658L76.7617 27.9658L76.7617 26.9658ZM81.6621 25.6309L82.3397 26.3663L82.3401 26.3659L81.6621 25.6309ZM83.125 22.3633L84.125 22.3633L84.125 22.3633L83.125 22.3633ZM82.3721 19.6357L81.5129 20.1475L81.5154 20.1517L82.3721 19.6357ZM80.2275 17.6191L79.7449 18.495L79.7518 18.4987L80.2275 17.6191ZM69.7734 16.8516V15.8516H68.7734V16.8516H69.7734ZM69.7734 13.7842H68.7734V14.7842H69.7734V13.7842ZM79.1768 13.1592L78.7414 12.2589L78.7375 12.2608L79.1768 13.1592ZM81.2217 11.3975L80.3928 10.838L80.388 10.8452L81.2217 11.3975ZM81.9893 8.72656L82.9893 8.72656L82.9893 8.72648L81.9893 8.72656ZM80.6533 5.47461L79.9425 6.17797L79.9462 6.1817L80.6533 5.47461ZM76.4209 4.125L76.4209 3.125H76.4209V4.125ZM69.7734 4.125V3.125H68.7734V4.125H69.7734ZM19.0908 25.1475V26.1475H19.4316V25.1475V24.1475H19.0908V25.1475ZM19.4316 25.1475L20.3571 25.5264L30.2438 1.3789L29.3184 1L28.3929 0.621098L18.5062 24.7686L19.4316 25.1475ZM29.3184 1V2H33.5234V1V0H29.3184V1ZM33.5234 1H32.5234V30.0908H33.5234H34.5234V1H33.5234ZM33.5234 30.0908V29.0908H30.2275V30.0908V31.0908H33.5234V30.0908ZM30.2275 30.0908H31.2275V7.98828H30.2275H29.2275V30.0908H30.2275ZM30.2275 7.98828V6.98828H29.9434V7.98828V8.98828H30.2275V7.98828ZM29.9434 7.98828L29.0185 7.6079L19.9277 29.7104L20.8525 30.0908L21.7774 30.4712L30.8682 8.36867L29.9434 7.98828ZM20.8525 30.0908V29.0908H17.6709V30.0908V31.0908H20.8525V30.0908ZM17.6709 30.0908L18.5957 29.7104L9.50491 7.6079L8.58008 7.98828L7.65525 8.36867L16.7461 30.4712L17.6709 30.0908ZM8.58008 7.98828V6.98828H8.2959V7.98828V8.98828H8.58008V7.98828ZM8.2959 7.98828H7.2959V30.0908H8.2959H9.2959V7.98828H8.2959ZM8.2959 30.0908V29.0908H5V30.0908V31.0908H8.2959V30.0908ZM5 30.0908H6V1H5H4V30.0908H5ZM5 1V2H9.20508V1V0H5V1ZM9.20508 1L8.27963 1.37887L18.1654 25.5263L19.0908 25.1475L20.0163 24.7686L10.1305 0.62113L9.20508 1ZM49.791 13.1016V14.1016H50.0176V13.1016V12.1016H49.791V13.1016ZM50.0176 13.1016L50.8676 13.6284L58.3676 1.52679L57.5176 1L56.6676 0.473211L49.1676 12.5748L50.0176 13.1016ZM57.5176 1V2H61.666V1V0H57.5176V1ZM61.666 1L60.8195 0.467582L51.6711 15.0125L52.5176 15.5449L53.3641 16.0773L62.5125 1.53242L61.666 1ZM52.5176 15.5449L51.6711 16.0773L60.8195 30.6232L61.666 30.0908L62.5125 29.5584L53.3641 15.0125L52.5176 15.5449ZM61.666 30.0908V29.0908H57.5176V30.0908V31.0908H61.666V30.0908ZM57.5176 30.0908L58.3631 29.5568L50.8631 17.6818L50.0176 18.2158L49.1721 18.7498L56.6721 30.6248L57.5176 30.0908ZM50.0176 18.2158V17.2158H49.791V18.2158V19.2158H50.0176V18.2158ZM49.791 18.2158L48.9455 17.6818L41.4455 29.5568L42.291 30.0908L43.1365 30.6248L50.6365 18.7498L49.791 18.2158ZM42.291 30.0908V29.0908H38.1426V30.0908V31.0908H42.291V30.0908ZM38.1426 30.0908L38.9831 30.6326L48.3581 16.0867L47.5176 15.5449L46.677 15.0032L37.302 29.5491L38.1426 30.0908ZM47.5176 15.5449L48.3581 15.0032L38.9831 0.458233L38.1426 1L37.302 1.54177L46.677 16.0867L47.5176 15.5449ZM38.1426 1V2H42.291V1V0H38.1426V1ZM42.291 1L41.441 1.52679L48.941 13.6284L49.791 13.1016L50.641 12.5748L43.141 0.473211L42.291 1ZM76.4209 1L76.4209 2C78.3395 2.00002 79.8357 2.33255 80.9647 2.93351L81.4346 2.05078L81.9045 1.16806C80.401 0.367753 78.5548 2.54085e-05 76.4209 0L76.4209 1ZM81.4346 2.05078L80.9696 2.93611C82.1316 3.54636 82.959 4.34716 83.4982 5.33044L84.375 4.84961L85.2518 4.36878C84.5032 3.00357 83.3701 1.93777 81.8995 1.16545L81.4346 2.05078ZM84.375 4.84961L83.4998 5.33341C84.0563 6.33999 84.3408 7.46394 84.3408 8.72661L85.3408 8.72656L86.3408 8.72651C86.3407 7.14882 85.9813 5.6884 85.2502 4.36581L84.375 4.84961ZM85.3408 8.72656H84.3408C84.3408 9.8649 84.1377 10.7189 83.7963 11.3438L84.6738 11.8232L85.5514 12.3027C86.0998 11.2989 86.3408 10.0878 86.3408 8.72656H85.3408ZM84.6738 11.8232L83.792 11.3516C83.4292 12.03 82.9611 12.5453 82.3908 12.9204L82.9404 13.7559L83.49 14.5913C84.3592 14.0195 85.0473 13.2453 85.5556 12.2949L84.6738 11.8232ZM82.9404 13.7559L82.3858 12.9238C81.7663 13.3367 81.0929 13.6425 80.3619 13.8419L80.625 14.8066L80.8881 15.7714C81.8235 15.5163 82.6943 15.1218 83.4951 14.5879L82.9404 13.7559ZM80.625 14.8066H79.625V15.0908H80.625H81.625V14.8066H80.625ZM80.625 15.0908L80.5613 16.0888C81.2549 16.1331 81.9903 16.3778 82.7756 16.8738L83.3096 16.0283L83.8435 15.1828C82.8297 14.5426 81.7753 14.1622 80.6887 14.0929L80.625 15.0908ZM83.3096 16.0283L82.7756 16.8738C83.5177 17.3425 84.1631 18.0281 84.7001 18.9678L85.5684 18.4717L86.4366 17.9755C85.7615 16.794 84.9007 15.8505 83.8436 15.1828L83.3096 16.0283ZM85.5684 18.4717L84.7001 18.9678C85.2003 19.8433 85.4775 20.9596 85.4775 22.3633L86.4775 22.3633L87.4775 22.3633C87.4775 20.6991 87.1483 19.2211 86.4366 17.9756L85.5684 18.4717ZM86.4775 22.3633H85.4775C85.4775 23.6639 85.1838 24.8024 84.6143 25.8033L85.4834 26.2979L86.3525 26.7924C87.1086 25.4639 87.4775 23.9792 87.4775 22.3633H86.4775ZM85.4834 26.2979L84.6143 25.8032C84.0698 26.7599 83.1931 27.5555 81.9134 28.1657L82.3438 29.0684L82.7741 29.971C84.3542 29.2176 85.5712 28.1653 86.3525 26.7925L85.4834 26.2979ZM82.3438 29.0684L81.9134 28.1657C80.6642 28.7612 78.9658 29.0908 76.7617 29.0908L76.7617 30.0908L76.7617 31.0908C79.1405 31.0908 81.1636 30.7389 82.7741 29.971L82.3438 29.0684ZM76.7617 30.0908V29.0908H66.25V30.0908V31.0908H76.7617V30.0908ZM66.25 30.0908H67.25V1H66.25H65.25V30.0908H66.25ZM66.25 1V2H76.4209V1V0H66.25V1ZM95.7891 13.9541V14.9541H111.3V13.9541V12.9541H95.7891V13.9541ZM111.3 13.9541H112.3V1H111.3H110.3V13.9541H111.3ZM111.3 1V2H114.822V1V0H111.3V1ZM114.822 1H113.822V30.0908H114.822H115.822V1H114.822ZM114.822 30.0908V29.0908H111.3V30.0908V31.0908H114.822V30.0908ZM111.3 30.0908H112.3V17.0791H111.3H110.3V30.0908H111.3ZM111.3 17.0791V16.0791H95.7891V17.0791V18.0791H111.3V17.0791ZM95.7891 17.0791H94.7891V30.0908H95.7891H96.7891V17.0791H95.7891ZM95.7891 30.0908V29.0908H92.2656V30.0908V31.0908H95.7891V30.0908ZM92.2656 30.0908H93.2656V1H92.2656H91.2656V30.0908H92.2656ZM92.2656 1V2H95.7891V1V0H92.2656V1ZM95.7891 1H94.7891V13.9541H95.7891H96.7891V1H95.7891ZM69.7734 26.9658V27.9658H76.7617V26.9658V25.9658H69.7734V26.9658ZM76.7617 26.9658L76.7617 27.9658C79.1411 27.9658 81.0927 27.5153 82.3397 26.3663L81.6621 25.6309L80.9845 24.8954C80.2997 25.5264 78.9841 25.9658 76.7617 25.9658L76.7617 26.9658ZM81.6621 25.6309L82.3401 26.3659C83.5121 25.285 84.125 23.9325 84.125 22.3633H83.125H82.125C82.125 23.3509 81.7629 24.1775 80.9841 24.8958L81.6621 25.6309ZM83.125 22.3633L84.125 22.3633C84.125 21.199 83.8256 20.1109 83.2287 19.1198L82.3721 19.6357L81.5154 20.1517C81.9223 20.8272 82.125 21.5579 82.125 22.3633L83.125 22.3633ZM82.3721 19.6357L83.2312 19.124C82.6301 18.1148 81.7773 17.3204 80.7033 16.7395L80.2275 17.6191L79.7518 18.4987C80.5334 18.9215 81.1103 19.4715 81.5129 20.1475L82.3721 19.6357ZM80.2275 17.6191L80.7101 16.7433C79.6079 16.1359 78.3364 15.8516 76.9316 15.8516V16.8516V17.8516C78.0648 17.8516 78.9911 18.0796 79.7449 18.495L80.2275 17.6191ZM76.9316 16.8516V15.8516H69.7734V16.8516V17.8516H76.9316V16.8516ZM69.7734 16.8516H68.7734V26.9658H69.7734H70.7734V16.8516H69.7734ZM69.7734 13.7842V14.7842H76.3066V13.7842V12.7842H69.7734V13.7842ZM76.3066 13.7842V14.7842C77.5012 14.7842 78.6114 14.5487 79.616 14.0576L79.1768 13.1592L78.7375 12.2608C78.0375 12.603 77.2333 12.7842 76.3066 12.7842V13.7842ZM79.1768 13.1592L79.6121 14.0594C80.6268 13.5688 81.4492 12.8646 82.0553 11.9498L81.2217 11.3975L80.388 10.8452C79.9904 11.4453 79.45 11.9163 78.7414 12.2589L79.1768 13.1592ZM81.2217 11.3975L82.0505 11.9569C82.6863 11.015 82.9893 9.92437 82.9893 8.72656H81.9893H80.9893C80.9893 9.57421 80.7798 10.2647 80.3928 10.838L81.2217 11.3975ZM81.9893 8.72656L82.9893 8.72648C82.9891 7.18719 82.4408 5.84793 81.3604 4.76751L80.6533 5.47461L79.9462 6.1817C80.6458 6.88136 80.9892 7.70956 80.9893 8.72664L81.9893 8.72656ZM80.6533 5.47461L81.3642 4.77125C80.2074 3.6022 78.4817 3.12503 76.4209 3.125L76.4209 4.125L76.4209 5.125C78.2236 5.12503 79.319 5.54784 79.9425 6.17796L80.6533 5.47461ZM76.4209 4.125V3.125H69.7734V4.125V5.125H76.4209V4.125ZM69.7734 4.125H68.7734V13.7842H69.7734H70.7734V4.125H69.7734Z" fill="white" mask="url(#path-1-outside-1_110001_43)"/>
</g>
<defs>
<filter id="filter0_d_110001_43" x="0" y="0" width="119.822" height="39.0908" filterUnits="userSpaceOnUse" color-interpolation-filters="sRGB">
<feFlood flood-opacity="0" result="BackgroundImageFix"/>
<feColorMatrix in="SourceAlpha" type="matrix" values="0 0 0 0 0 0 0 0 0 0 0 0 0 0 0 0 0 0 127 0" result="hardAlpha"/>
<feOffset dy="4"/>
<feGaussianBlur stdDeviation="2"/>
<feComposite in2="hardAlpha" operator="out"/>
<feColorMatrix type="matrix" values="0 0 0 0 0 0 0 0 0 0 0 0 0 0 0 0 0 0 0.25 0"/>
<feBlend mode="normal" in2="BackgroundImageFix" result="effect1_dropShadow_110001_43"/>
<feBlend mode="normal" in="SourceGraphic" in2="effect1_dropShadow_110001_43" result="shape"/>
</filter>
</defs>
</svg>
