<svg width="138" height="190" viewBox="0 0 138 190" fill="none" xmlns="http://www.w3.org/2000/svg">
<path d="M22.634 0.399994H56.81V90H41.322V51.728H15.722V90H0.490001V23.312L22.634 0.399994ZM15.722 27.792V37.264H41.322V14.864H28.266L15.722 27.792ZM86.584 0.399994H125.368L134.2 13.712L123.704 23.952L117.56 14.864H92.6L90.296 17.296V32.272L94.136 37.904H126.52L136.76 53.392V79.12L126.264 90H81.592L74.04 79.248L84.152 68.752L89.144 75.536H119.864L121.272 74.384V55.952L118.712 52.368H86.328L74.808 35.216V12.688L86.584 0.399994ZM22.634 100.4H56.81V190H41.322V151.728H15.722V190H0.490001V123.312L22.634 100.4ZM15.722 127.792V137.264H41.322V114.864H28.266L15.722 127.792ZM75.704 100.4H119.224L137.656 127.92V177.84L126.008 190H75.704V100.4ZM91.192 114.864V175.664H119.608L122.168 173.104V130.864L111.288 114.864H91.192Z" fill="white"/>
</svg>
